<svg xmlns="http://www.w3.org/2000/svg" viewBox="0 0 400 200" role="img" aria-label="Illustration of an electric pickup truck">
  <title>Electric pickup truck (illustration)</title>
  <defs>
    <linearGradient id="paint" gradientUnits="userSpaceOnUse" x1="0" y1="47.1" x2="0" y2="142.8"><stop offset="0.000" stop-color="#1d6589"/><stop offset="0.322" stop-color="#22789e"/><stop offset="0.383" stop-color="#3f98c0"/><stop offset="0.441" stop-color="#21769d"/><stop offset="0.695" stop-color="#195f84"/><stop offset="1.000" stop-color="#103a52"/></linearGradient>
    <linearGradient id="glass" x1="0" y1="0" x2="0" y2="1">
      <stop offset="0" stop-color="#8d9ba4"/><stop offset="0.5" stop-color="#46535c"/><stop offset="1" stop-color="#1d252b"/>
    </linearGradient>
  </defs>
  <ellipse cx="200" cy="173" rx="182" ry="5" fill="#000" opacity="0.22"/>
  <path fill="#07090a" d="M21.3 84.1 L21.3 86.9 L21.6 87.2 L21.0 87.8 L21.6 88.5 L21.0 89.0 L21.0 90.8 L20.6 91.1 L21.5 91.4 L22.6 92.7 L21.5 93.8 L20.3 93.8 L21.3 94.8 L21.3 95.3 L20.6 95.8 L20.6 104.7 L21.0 104.9 L21.3 110.9 L21.6 111.0 L21.6 112.5 L21.9 112.6 L21.9 114.1 L22.3 114.4 L20.5 116.2 L19.7 116.5 L19.7 117.4 L19.4 117.5 L19.4 120.6 L19.7 120.8 L20.0 122.5 L21.3 124.6 L22.3 128.4 L23.2 130.2 L22.1 131.5 L21.6 131.5 L22.3 132.9 L23.9 133.9 L25.4 134.2 L26.5 135.4 L26.5 135.8 L27.8 136.8 L37.0 137.5 L37.2 137.8 L39.6 138.1 L40.8 138.8 L44.5 139.4 L45.3 140.4 L48.1 140.4 L48.2 140.7 L49.4 140.7 L49.5 141.0 L50.6 141.0 L50.8 141.4 L51.9 141.4 L52.1 141.7 L53.2 141.7 L53.4 142.0 L54.5 142.0 L54.7 142.3 L59.7 143.3 L60.9 144.4 L60.9 145.2 L369.1 145.2 L369.6 144.6 L372.4 143.3 L372.9 142.6 L373.4 142.6 L373.8 142.0 L375.3 141.4 L376.1 140.4 L376.6 140.4 L377.4 139.4 L377.9 139.4 L380.5 136.8 L380.2 134.7 L381.1 133.6 L381.1 129.8 L381.5 129.7 L381.1 129.0 L381.1 126.9 L381.5 126.6 L381.1 125.9 L379.7 125.9 L379.5 125.6 L379.2 125.9 L378.1 125.9 L376.9 124.8 L376.9 124.3 L377.6 123.7 L376.6 122.9 L376.6 120.8 L379.2 117.0 L379.2 115.6 L378.9 115.4 L379.2 114.8 L378.9 114.4 L378.9 110.1 L378.5 109.9 L378.2 99.0 L378.1 101.5 L376.9 102.6 L373.2 102.6 L373.0 102.3 L369.3 102.3 L369.1 101.9 L363.1 101.6 L361.8 101.0 L359.1 98.2 L359.1 97.4 L360.2 96.3 L365.9 96.3 L366.1 96.6 L366.5 96.3 L366.7 96.6 L377.2 96.9 L377.9 95.6 L377.9 94.5 L376.3 92.9 L374.5 92.5 L370.8 90.6 L366.7 89.9 L365.9 89.3 L364.4 89.3 L364.3 89.0 L361.5 88.6 L360.4 88.0 L358.6 88.0 L358.4 87.7 L357.3 87.7 L357.1 87.4 L354.7 87.4 L354.5 87.0 L350.2 86.7 L350.0 86.4 L340.4 86.1 L340.3 85.7 L339.1 85.7 L339.0 85.4 L332.3 85.4 L332.2 85.1 L331.8 85.4 L330.1 85.4 L329.9 85.1 L327.1 85.1 L327.0 84.8 L326.6 85.1 L326.3 84.8 L320.3 84.8 L320.2 84.4 L318.7 84.4 L318.5 84.1 L318.2 84.4 L313.5 84.4 L313.4 84.1 L309.6 84.1 L309.1 83.5 L308.3 83.5 L307.8 84.1 L305.4 84.1 L305.2 83.8 L302.8 83.8 L302.6 83.5 L287.9 83.8 L285.8 81.7 L285.8 81.2 L286.4 80.5 L284.8 78.9 L284.3 78.9 L283.2 77.6 L282.7 77.6 L281.6 76.3 L281.1 76.3 L280.3 75.4 L279.8 75.4 L278.6 74.1 L278.2 74.1 L277.0 72.8 L275.6 72.1 L274.4 70.8 L273.9 70.8 L270.5 67.9 L270.1 67.9 L268.3 66.3 L266.8 65.6 L265.7 64.3 L265.2 64.3 L264.7 63.7 L263.2 63.0 L262.4 62.1 L261.9 62.1 L261.5 61.4 L261.0 61.4 L260.5 60.8 L259.0 60.1 L257.2 58.5 L256.1 58.2 L255.3 57.2 L254.2 56.9 L251.7 54.9 L249.6 53.9 L248.5 52.8 L249.1 52.0 L246.4 51.4 L245.6 50.4 L244.3 49.7 L242.2 49.4 L241.4 48.8 L237.9 48.4 L237.8 48.1 L230.5 48.1 L230.3 47.8 L226.3 47.8 L226.1 47.5 L225.0 47.5 L224.6 47.8 L224.5 47.5 L204.2 47.1 L204.1 46.8 L157.8 46.8 L157.7 47.1 L156.4 47.1 L156.2 47.6 L143.6 47.6 L143.1 48.1 L141.6 48.1 L141.5 48.4 L140.3 48.4 L140.2 48.8 L137.7 48.8 L137.6 49.1 L136.9 48.4 L135.5 48.4 L134.6 49.4 L131.2 49.4 L131.1 49.7 L129.0 49.7 L128.6 50.1 L129.9 52.0 L129.6 52.5 L131.7 53.1 L133.2 54.6 L132.5 55.9 L132.2 59.6 L131.9 59.8 L131.9 62.2 L131.6 62.4 L131.6 64.8 L131.2 65.0 L131.2 68.1 L130.9 68.2 L130.9 71.6 L130.6 71.8 L130.6 75.5 L130.3 75.7 L130.3 76.2 L131.6 77.3 L131.6 77.8 L130.1 79.6 L119.2 79.6 L119.1 79.2 L89.7 79.2 L89.6 78.9 L56.0 78.9 L55.8 78.6 L25.8 78.6 L24.5 79.2 L22.6 81.2 L22.6 81.7 L21.6 82.8 L21.6 83.9 Z"/>
  <path fill="#111518" stroke="#3a4247" stroke-width="0.7" stroke-linejoin="round" d="M21.3 84.1 L21.3 86.9 L21.6 87.2 L21.0 87.8 L21.6 88.5 L21.0 89.0 L21.0 90.8 L20.6 91.1 L21.5 91.4 L22.6 92.7 L21.5 93.8 L20.3 93.8 L21.3 94.8 L21.3 95.3 L20.6 95.8 L20.6 104.7 L21.0 104.9 L21.3 110.9 L21.6 111.0 L21.6 112.5 L21.9 112.6 L21.9 114.1 L22.3 114.4 L20.5 116.2 L19.7 116.5 L19.7 117.4 L19.4 117.5 L19.4 120.6 L19.7 120.8 L20.0 122.5 L21.3 124.6 L22.3 128.4 L23.2 130.2 L22.1 131.5 L21.6 131.5 L22.3 132.9 L23.9 133.9 L25.4 134.2 L26.5 135.4 L26.5 135.8 L27.8 136.8 L37.0 137.5 L37.2 137.8 L39.6 138.1 L40.8 138.8 L44.5 139.4 L45.3 140.4 L48.1 140.4 L48.2 140.7 L49.4 140.7 L49.5 141.0 L50.6 141.0 L50.8 141.4 L51.9 141.4 L52.1 141.7 L53.2 141.7 L53.4 142.0 L54.5 142.0 L54.7 142.3 L59.7 143.3 L60.9 144.4 L60.9 145.2 L369.1 145.2 L369.6 144.6 L372.4 143.3 L372.9 142.6 L373.4 142.6 L373.8 142.0 L375.3 141.4 L376.1 140.4 L376.6 140.4 L377.4 139.4 L377.9 139.4 L380.5 136.8 L380.2 134.7 L381.1 133.6 L381.1 129.8 L381.5 129.7 L381.1 129.0 L381.1 126.9 L381.5 126.6 L381.1 125.9 L379.7 125.9 L379.5 125.6 L379.2 125.9 L378.1 125.9 L376.9 124.8 L376.9 124.3 L377.6 123.7 L376.6 122.9 L376.6 120.8 L379.2 117.0 L379.2 115.6 L378.9 115.4 L379.2 114.8 L378.9 114.4 L378.9 110.1 L378.5 109.9 L378.2 99.0 L378.1 101.5 L376.9 102.6 L373.2 102.6 L373.0 102.3 L369.3 102.3 L369.1 101.9 L363.1 101.6 L361.8 101.0 L359.1 98.2 L359.1 97.4 L360.2 96.3 L365.9 96.3 L366.1 96.6 L366.5 96.3 L366.7 96.6 L377.2 96.9 L377.9 95.6 L377.9 94.5 L376.3 92.9 L374.5 92.5 L370.8 90.6 L366.7 89.9 L365.9 89.3 L364.4 89.3 L364.3 89.0 L361.5 88.6 L360.4 88.0 L358.6 88.0 L358.4 87.7 L357.3 87.7 L357.1 87.4 L354.7 87.4 L354.5 87.0 L350.2 86.7 L350.0 86.4 L340.4 86.1 L340.3 85.7 L339.1 85.7 L339.0 85.4 L332.3 85.4 L332.2 85.1 L331.8 85.4 L330.1 85.4 L329.9 85.1 L327.1 85.1 L327.0 84.8 L326.6 85.1 L326.3 84.8 L320.3 84.8 L320.2 84.4 L318.7 84.4 L318.5 84.1 L318.2 84.4 L313.5 84.4 L313.4 84.1 L309.6 84.1 L309.1 83.5 L308.3 83.5 L307.8 84.1 L305.4 84.1 L305.2 83.8 L302.8 83.8 L302.6 83.5 L287.9 83.8 L285.8 81.7 L285.8 81.2 L286.4 80.5 L284.8 78.9 L284.3 78.9 L283.2 77.6 L282.7 77.6 L281.6 76.3 L281.1 76.3 L280.3 75.4 L279.8 75.4 L278.6 74.1 L278.2 74.1 L277.0 72.8 L275.6 72.1 L274.4 70.8 L273.9 70.8 L270.5 67.9 L270.1 67.9 L268.3 66.3 L266.8 65.6 L265.7 64.3 L265.2 64.3 L264.7 63.7 L263.2 63.0 L262.4 62.1 L261.9 62.1 L261.5 61.4 L261.0 61.4 L260.5 60.8 L259.0 60.1 L257.2 58.5 L256.1 58.2 L255.3 57.2 L254.2 56.9 L251.7 54.9 L249.6 53.9 L248.5 52.8 L249.1 52.0 L246.4 51.4 L245.6 50.4 L244.3 49.7 L242.2 49.4 L241.4 48.8 L237.9 48.4 L237.8 48.1 L230.5 48.1 L230.3 47.8 L226.3 47.8 L226.1 47.5 L225.0 47.5 L224.6 47.8 L224.5 47.5 L204.2 47.1 L204.1 46.8 L157.8 46.8 L157.7 47.1 L156.4 47.1 L156.2 47.6 L143.6 47.6 L143.1 48.1 L141.6 48.1 L141.5 48.4 L140.3 48.4 L140.2 48.8 L137.7 48.8 L137.6 49.1 L136.9 48.4 L135.5 48.4 L134.6 49.4 L131.2 49.4 L131.1 49.7 L129.0 49.7 L128.6 50.1 L129.9 52.0 L129.6 52.5 L131.7 53.1 L133.2 54.6 L132.5 55.9 L132.2 59.6 L131.9 59.8 L131.9 62.2 L131.6 62.4 L131.6 64.8 L131.2 65.0 L131.2 68.1 L130.9 68.2 L130.9 71.6 L130.6 71.8 L130.6 75.5 L130.3 75.7 L130.3 76.2 L131.6 77.3 L131.6 77.8 L130.1 79.6 L119.2 79.6 L119.1 79.2 L89.7 79.2 L89.6 78.9 L56.0 78.9 L55.8 78.6 L25.8 78.6 L24.5 79.2 L22.6 81.2 L22.6 81.7 L21.6 82.8 L21.6 83.9 Z"/>
  <path fill="url(#paint)" fill-rule="evenodd" d="M21.3 84.1 L21.3 86.9 L21.6 87.0 L21.3 87.4 L21.3 88.2 L21.6 88.5 L21.0 89.0 L21.0 91.4 L21.5 91.4 L22.6 92.5 L21.5 93.8 L21.0 93.8 L21.3 95.3 L20.6 95.8 L20.6 104.7 L21.0 104.9 L21.3 110.9 L21.6 111.0 L21.6 112.5 L21.9 112.6 L21.9 114.1 L22.3 114.3 L21.9 114.6 L21.9 115.4 L52.4 115.4 L58.3 124.3 L59.1 124.3 L60.2 121.9 L62.5 118.3 L66.1 113.9 L69.3 110.9 L73.5 107.8 L77.1 105.8 L81.8 104.1 L86.3 103.1 L90.7 102.8 L97.0 103.4 L101.6 104.7 L107.1 107.3 L112.1 110.9 L116.6 115.4 L120.2 120.3 L123.3 126.1 L124.8 130.3 L294.4 130.3 L296.5 125.1 L299.7 119.6 L302.8 115.7 L307.7 111.2 L311.7 108.4 L316.9 106.0 L321.5 104.7 L327.8 104.1 L334.1 104.7 L338.6 106.0 L343.8 108.4 L347.9 111.2 L352.8 115.7 L355.8 119.6 L358.8 124.5 L361.2 130.3 L363.6 130.3 L363.8 121.9 L376.6 121.9 L376.6 120.8 L376.9 120.6 L376.9 120.1 L378.5 118.3 L378.5 117.8 L379.2 117.0 L379.2 115.6 L378.9 115.4 L378.9 110.1 L378.5 109.9 L378.5 103.9 L378.2 103.7 L378.2 101.9 L377.4 101.9 L376.9 102.6 L373.2 102.6 L373.0 102.3 L369.3 102.3 L369.1 101.9 L363.1 101.6 L363.0 101.3 L361.8 101.0 L359.1 98.2 L359.1 97.4 L360.2 96.3 L366.5 96.3 L366.7 96.6 L373.7 96.6 L373.8 96.9 L377.2 96.9 L377.2 96.4 L377.9 95.6 L377.9 94.5 L376.3 92.9 L374.5 92.5 L374.3 92.2 L373.8 92.2 L372.4 91.2 L371.6 91.2 L370.8 90.6 L369.9 90.6 L369.8 90.3 L368.0 90.3 L367.8 89.9 L366.7 89.9 L365.9 89.3 L364.4 89.3 L364.3 89.0 L361.5 88.6 L361.4 88.3 L360.5 88.3 L360.4 88.0 L358.6 88.0 L358.4 87.7 L357.3 87.7 L357.1 87.4 L354.7 87.4 L354.5 87.0 L352.8 87.0 L352.6 86.7 L346.9 86.4 L346.8 86.1 L340.4 86.1 L340.3 85.7 L339.1 85.7 L339.0 85.4 L330.1 85.4 L329.9 85.1 L326.5 85.1 L326.3 84.8 L313.5 84.4 L313.4 84.1 L309.6 84.1 L309.1 83.5 L308.3 83.5 L307.8 84.1 L305.4 84.1 L305.2 83.8 L302.8 83.8 L302.6 83.5 L297.9 83.5 L297.3 83.9 L284.6 83.9 L284.0 83.3 L150.4 83.3 L150.2 52.8 L131.9 52.8 L131.9 53.5 L133.2 54.6 L133.2 55.1 L132.5 55.9 L132.5 57.4 L132.2 57.5 L131.9 62.2 L131.6 62.4 L131.6 64.8 L131.2 65.0 L131.2 68.1 L130.9 68.2 L130.9 71.6 L130.6 71.8 L130.6 76.5 L131.6 77.3 L131.6 77.8 L130.1 79.6 L119.2 79.6 L119.1 79.2 L89.7 79.2 L89.6 78.9 L56.0 78.9 L55.8 78.6 L25.8 78.6 L25.7 78.9 L24.5 79.2 L22.6 81.2 L22.6 81.7 L21.6 82.8 L21.6 83.9 Z M153.1 47.6 L153.1 51.5 L245.9 51.5 L245.9 50.7 L245.6 50.4 L245.1 50.4 L244.3 49.7 L243.5 49.7 L243.3 49.4 L242.2 49.4 L241.4 48.8 L237.9 48.4 L237.8 48.1 L230.5 48.1 L230.3 47.8 L226.3 47.8 L226.1 47.5 L225.0 47.5 L224.6 47.8 L224.5 47.5 L213.6 47.5 L213.5 47.1 L204.2 47.1 L204.1 46.8 L157.8 46.8 L157.7 47.1 L156.4 47.1 L156.2 47.6 Z"/>
  <path fill="none" stroke="#2b3236" stroke-width="0.9" d="M56.8 145.4 A33.9 39.8 0 1 1 124.6 145.4"/>
  <path fill="none" stroke="#2b3236" stroke-width="0.9" d="M294.5 145.4 A33.3 38.5 0 1 1 361.1 145.4"/>
  <path fill="url(#glass)" d="M251.4 54.9 L278.2 81.2 L286.4 82.2 L285.8 81.7 L285.8 81.2 L286.4 80.5 L284.8 78.9 L284.3 78.9 L283.2 77.6 L282.7 77.6 L281.6 76.3 L281.1 76.3 L278.6 74.1 L278.2 74.1 L277.0 72.8 L276.5 72.8 L276.1 72.1 L275.6 72.1 L274.4 70.8 L273.9 70.8 L273.1 69.8 L272.6 69.8 L270.5 67.9 L270.1 67.9 L269.6 67.2 L269.1 67.2 L268.3 66.3 L267.8 66.3 L267.3 65.6 L266.8 65.6 L265.7 64.3 L265.2 64.3 L264.7 63.7 L264.2 63.7 L263.7 63.0 L263.2 63.0 L262.4 62.1 L261.9 62.1 L261.5 61.4 L261.0 61.4 L260.5 60.8 L260.0 60.8 L259.5 60.1 L259.0 60.1 L258.2 59.1 L257.7 59.1 L257.2 58.5 L256.1 58.2 L255.3 57.2 L254.2 56.9 L253.7 56.2 L253.2 56.2 L252.7 55.6 L252.2 55.6 L251.7 54.9 Z"/>
  <path fill="url(#glass)" d="M156.2 53.9 L198.4 53.9 L198.4 80.5 L154.3 80.5 L154.3 56.5 Z"/>
  <path fill="url(#glass)" d="M212.0 53.9 L245.4 53.9 L274.9 80.5 L212.0 80.5 Z"/>
  <path d="M261.9 74.7 L267.8 72.8 L274.9 73.4 L277.5 77.3 L277.8 82.2 L263.2 82.2 Z" fill="#1f7097"/>
  <path d="M263.9 81.2 L277.8 81.2 L277.8 84.4 L265.2 84.4 Z" fill="#111518"/>
  <path d="M358.9 96.4 L376.8 96.4 L379.0 98.7 L376.8 101.3 L358.9 101.3 L357.3 98.7 Z" fill="#f5f8ff"/>
  <path d="M20.6 87.7 L37.5 88.0 L38.2 92.9 L20.6 93.2 Z" fill="#5d0f0b"/>
  <path d="M20.6 89.3 L37.2 89.6 L37.2 90.9 L20.6 90.9 Z" fill="#f04a3f"/>
  <path d="M285.9 123.4 L290.5 123.4 L290.5 125.3 L285.9 125.3 Z" fill="#e08a1d"/>
  <path d="M153.6 89.9 L169.2 89.9 L169.2 91.9 L153.6 91.9 Z" fill="#0f3a52" opacity="0.8"/>
  <path d="M217.8 91.6 L233.4 91.6 L233.4 93.5 L217.8 93.5 Z" fill="#0f3a52" opacity="0.8"/>
  <path fill="none" d="M286.9 85.1 L287.9 103.9 L294.1 126.6" stroke="#0d3449" stroke-width="0.8"/>
  <path fill="none" d="M211.0 83.8 L211.0 130.5" stroke="#0d3449" stroke-width="0.8"/>
  <path fill="none" d="M151.4 83.8 L152.3 107.1 L165.9 130.5" stroke="#0d3449" stroke-width="0.8"/>
  <path fill="none" d="M113.4 89.6 L117.3 107.1 L124.4 125.3" stroke="#0d3449" stroke-width="0.8"/>
  <path fill="none" d="M22.6 79.2 L131.2 79.2" stroke="#a9d8ee" stroke-width="0.9" opacity="0.7"/>
  <g transform="translate(90.7 143.5) scale(0.951)">
    <circle r="30" fill="#15181a"/>
    <circle r="28" fill="none" stroke="#25292c" stroke-width="2.4"/>
    <circle r="21.1" fill="#2a2f33"/>
    <path d="M-16.5 6.3 A17.8 17.8 0 0 1 -11.6 -13.1 L-8.9 -9.9 A13.5 13.5 0 0 0 -12.7 4.7 Z" fill="#e0a51a"/>
    <g fill="#d6dce1"><path transform="rotate(0)" d="M-2.4 -6.2 L-5.6 -20.3 Q0 -21.7 5.6 -20.3 L2.4 -6.2 Z"/><path transform="rotate(72)" d="M-2.4 -6.2 L-5.6 -20.3 Q0 -21.7 5.6 -20.3 L2.4 -6.2 Z"/><path transform="rotate(144)" d="M-2.4 -6.2 L-5.6 -20.3 Q0 -21.7 5.6 -20.3 L2.4 -6.2 Z"/><path transform="rotate(216)" d="M-2.4 -6.2 L-5.6 -20.3 Q0 -21.7 5.6 -20.3 L2.4 -6.2 Z"/><path transform="rotate(288)" d="M-2.4 -6.2 L-5.6 -20.3 Q0 -21.7 5.6 -20.3 L2.4 -6.2 Z"/></g>
    <circle r="21.1" fill="none" stroke="#d6dce1" stroke-width="1.8"/>
    <circle r="6.2" fill="#d6dce1"/>
    <circle r="2.6" fill="#2a2f33"/>
  </g>
  <g transform="translate(327.8 143.5) scale(0.951)">
    <circle r="30" fill="#15181a"/>
    <circle r="28" fill="none" stroke="#25292c" stroke-width="2.4"/>
    <circle r="21.1" fill="#2a2f33"/>
    <path d="M-16.5 6.3 A17.8 17.8 0 0 1 -11.6 -13.1 L-8.9 -9.9 A13.5 13.5 0 0 0 -12.7 4.7 Z" fill="#e0a51a"/>
    <g fill="#d6dce1"><path transform="rotate(0)" d="M-2.4 -6.2 L-5.6 -20.3 Q0 -21.7 5.6 -20.3 L2.4 -6.2 Z"/><path transform="rotate(72)" d="M-2.4 -6.2 L-5.6 -20.3 Q0 -21.7 5.6 -20.3 L2.4 -6.2 Z"/><path transform="rotate(144)" d="M-2.4 -6.2 L-5.6 -20.3 Q0 -21.7 5.6 -20.3 L2.4 -6.2 Z"/><path transform="rotate(216)" d="M-2.4 -6.2 L-5.6 -20.3 Q0 -21.7 5.6 -20.3 L2.4 -6.2 Z"/><path transform="rotate(288)" d="M-2.4 -6.2 L-5.6 -20.3 Q0 -21.7 5.6 -20.3 L2.4 -6.2 Z"/></g>
    <circle r="21.1" fill="none" stroke="#d6dce1" stroke-width="1.8"/>
    <circle r="6.2" fill="#d6dce1"/>
    <circle r="2.6" fill="#2a2f33"/>
  </g>
</svg>
